<svg xmlns="http://www.w3.org/2000/svg" xmlns:xlink="http://www.w3.org/1999/xlink" width="63" height="64" viewBox="0 0 63 64">
  <defs>
    <linearGradient id="linear-gradient" x1="0.029" y1="0.166" x2="0.982" y2="0.774" gradientUnits="objectBoundingBox">
      <stop offset="0" stop-color="#e600ff"/>
      <stop offset="1" stop-color="#2e2cf3"/>
    </linearGradient>
  </defs>
  <g id="Group_156" data-name="Group 156" transform="translate(-0.428 0.286)">
    <ellipse id="Ellipse_12" data-name="Ellipse 12" cx="31.5" cy="32" rx="31.5" ry="32" transform="translate(0.428 -0.286)" fill="url(#linear-gradient)"/>
    <g id="discord" transform="translate(15.429 -42.157)">
      <path id="Path_2050" data-name="Path 2050" d="M27.864,62.951a27.147,27.147,0,0,0-6.7-2.078.1.1,0,0,0-.108.051,18.9,18.9,0,0,0-.834,1.714,25.058,25.058,0,0,0-7.525,0,17.348,17.348,0,0,0-.847-1.714.106.106,0,0,0-.108-.051,27.069,27.069,0,0,0-6.7,2.078A.1.1,0,0,0,5,62.989,27.781,27.781,0,0,0,.135,81.725a.113.113,0,0,0,.043.077A27.3,27.3,0,0,0,8.4,85.956a.106.106,0,0,0,.115-.038,19.511,19.511,0,0,0,1.681-2.735.1.1,0,0,0-.057-.145A17.979,17.979,0,0,1,7.57,81.815a.106.106,0,0,1-.01-.175c.173-.129.345-.264.51-.4a.1.1,0,0,1,.106-.014,19.466,19.466,0,0,0,16.542,0,.1.1,0,0,1,.108.013c.165.136.337.272.511.4a.106.106,0,0,1-.009.175,16.867,16.867,0,0,1-2.569,1.223.1.1,0,0,0-.056.146,21.914,21.914,0,0,0,1.68,2.734.1.1,0,0,0,.115.039A27.2,27.2,0,0,0,32.731,81.8a.105.105,0,0,0,.043-.076A27.6,27.6,0,0,0,27.907,62.99.084.084,0,0,0,27.864,62.951ZM11,77.985a3.339,3.339,0,0,1,0-6.635,3.339,3.339,0,0,1,0,6.635Zm10.937,0a3.339,3.339,0,0,1,0-6.635,3.339,3.339,0,0,1,0,6.635Z" transform="translate(0 0)" fill="#fff"/>
    </g>
  </g>
</svg>
