<svg id="Group_81" data-name="Group 81" xmlns="http://www.w3.org/2000/svg" xmlns:xlink="http://www.w3.org/1999/xlink" width="54" height="55" viewBox="0 0 54 55">
  <defs>
    <linearGradient id="linear-gradient" x1="0.029" y1="0.166" x2="0.982" y2="0.774" gradientUnits="objectBoundingBox">
      <stop offset="0" stop-color="#e600ff"/>
      <stop offset="1" stop-color="#2e2cf3"/>
    </linearGradient>
  </defs>
  <ellipse id="Ellipse_12" data-name="Ellipse 12" cx="27" cy="27.5" rx="27" ry="27.5" transform="translate(0 0)" fill="url(#linear-gradient)"/>
  <path id="Icon_awesome-instagram" data-name="Icon awesome-instagram" d="M14.629,9.365a7.5,7.5,0,1,0,7.5,7.5A7.489,7.489,0,0,0,14.629,9.365Zm0,12.378a4.877,4.877,0,1,1,4.877-4.877,4.885,4.885,0,0,1-4.877,4.877ZM24.187,9.058a1.75,1.75,0,1,1-1.75-1.75A1.746,1.746,0,0,1,24.187,9.058Zm4.968,1.776A8.658,8.658,0,0,0,26.792,4.7a8.715,8.715,0,0,0-6.13-2.363c-2.415-.137-9.655-.137-12.071,0A8.7,8.7,0,0,0,2.461,4.7,8.687,8.687,0,0,0,.1,10.827C-.04,13.243-.04,20.483.1,22.9a8.658,8.658,0,0,0,2.363,6.13,8.726,8.726,0,0,0,6.13,2.363c2.415.137,9.655.137,12.071,0a8.658,8.658,0,0,0,6.13-2.363,8.715,8.715,0,0,0,2.363-6.13c.137-2.415.137-9.649,0-12.064ZM26.034,25.49a4.937,4.937,0,0,1-2.781,2.781c-1.926.764-6.5.588-8.624.588s-6.7.17-8.624-.588A4.937,4.937,0,0,1,3.225,25.49c-.764-1.926-.588-6.5-.588-8.624s-.17-6.7.588-8.624A4.937,4.937,0,0,1,6.006,5.461c1.926-.764,6.5-.588,8.624-.588s6.7-.17,8.624.588a4.937,4.937,0,0,1,2.781,2.781c.764,1.926.588,6.5.588,8.624S26.8,23.57,26.034,25.49Z" transform="translate(12.133 10.89)" fill="#fff"/>
</svg>
