<svg xmlns="http://www.w3.org/2000/svg" xmlns:xlink="http://www.w3.org/1999/xlink" width="64" height="64" viewBox="0 0 64 64">
  <defs>
    <linearGradient id="linear-gradient" x1="0.029" y1="0.166" x2="0.982" y2="0.774" gradientUnits="objectBoundingBox">
      <stop offset="0" stop-color="#e600ff"/>
      <stop offset="1" stop-color="#2e2cf3"/>
    </linearGradient>
  </defs>
  <g id="Group_82" data-name="Group 82" transform="translate(0.285 0.286)">
    <circle id="Ellipse_12" data-name="Ellipse 12" cx="32" cy="32" r="32" transform="translate(-0.285 -0.286)" fill="url(#linear-gradient)"/>
    <path id="Icon_awesome-twitter" data-name="Icon awesome-twitter" d="M29.026,9.929c.021.287.021.575.021.862,0,8.765-6.671,18.865-18.865,18.865A18.737,18.737,0,0,1,0,26.679a13.716,13.716,0,0,0,1.6.082,13.279,13.279,0,0,0,8.231-2.833,6.642,6.642,0,0,1-6.2-4.6,8.361,8.361,0,0,0,1.252.1,7.013,7.013,0,0,0,1.745-.226A6.631,6.631,0,0,1,1.314,12.7v-.082a6.677,6.677,0,0,0,3,.842A6.64,6.64,0,0,1,2.258,4.592,18.846,18.846,0,0,0,15.929,11.53a7.485,7.485,0,0,1-.164-1.519A6.637,6.637,0,0,1,27.24,5.475a13.054,13.054,0,0,0,4.208-1.6,6.612,6.612,0,0,1-2.915,3.654A13.292,13.292,0,0,0,32.351,6.5a14.253,14.253,0,0,1-3.325,3.428Z" transform="translate(15.857 14.855)" fill="#fff"/>
  </g>
</svg>
