<svg xmlns="http://www.w3.org/2000/svg" width="114.134" height="124.925" viewBox="0 0 114.134 124.925">
  <g id="_1798450452928" transform="translate(-2659.42 -2641.47)">
    <path id="Path_2039" data-name="Path 2039" d="M3118.453,2677.033H3096.99v-17.3l15-.055V2641.47h60.467v16.656l-1.14,1.12a62.651,62.651,0,0,0-8.039,10.006l20.217-.073-5.488,6.34c-7.879,9.1-16.889,30.529-19.38,45.489a60.948,60.948,0,0,0-.648,11.083h-17.807l.083-3.509H3122.8l.092-3.9q.023-.988.067-1.973h-14.106a80.244,80.244,0,0,1,.594-9.263C3110.782,2703.58,3114.555,2686.684,3118.453,2677.033Zm24.925-17.471,8.388-.031-5.343,6.173q-1.218,1.78-2.369,3.618l14.684-.054a71.3,71.3,0,0,1,9.9-12.742v-11.242H3115.8v14.277Zm-2.191,13.585-4.389.016-4.269.015v9.688h23.851c-4.129,5.193-10.822,28.634-12.13,42.815-.079.866-.149,1.728-.177,2.6h10.069c-.082-15.665,11.471-44.271,20.978-55.255l-14.263.052-4.437.016Zm-2.121-3.807a49.924,49.924,0,0,1,4.329-5.965l-42.591.156v9.688h23.852c-4.68,5.889-11.7,37.265-11.9,45.672l10.329.038c.133-1.212.3-2.5.507-3.865l0-.033a109.148,109.148,0,0,1,4.256-19.455c.841-2.987,1.775-5.982,2.791-8.9h-1.93v-17.3Zm-4.024,17.6a160.786,160.786,0,0,0-8.007,31.9q-.26,2.978-.329,5.935h13.836a194.352,194.352,0,0,1,4.49-24.209,108.617,108.617,0,0,1,4.641-13.879h-14.525Z" transform="translate(-418.923)" fill="#fefefe"/>
    <path id="Path_2040" data-name="Path 2040" d="M2671.738,5014.862a11.844,11.844,0,0,1-8.8-3.569,12.023,12.023,0,0,1-3.517-8.784v-.069a12.195,12.195,0,0,1,12.524-12.42,12.837,12.837,0,0,1,9.471,3.7l-3.364,3.878a9.3,9.3,0,0,0-6.141-2.711,6.456,6.456,0,0,0-4.976,2.18,7.572,7.572,0,0,0-1.99,5.3v.066a7.725,7.725,0,0,0,1.973,5.354,6.419,6.419,0,0,0,4.993,2.2,7.638,7.638,0,0,0,3.345-.687,12.3,12.3,0,0,0,2.968-2.128l3.363,3.4a13.781,13.781,0,0,1-4.272,3.226A13.2,13.2,0,0,1,2671.738,5014.862Zm21.015-.411v-24.02h5.284v19.215h11.975v4.805Zm45.255-2.369a10.561,10.561,0,0,1-7.736,2.747q-4.942,0-7.669-2.711t-2.727-7.961v-13.725h5.283v13.587a6.437,6.437,0,0,0,1.355,4.428,4.883,4.883,0,0,0,3.827,1.509,4.973,4.973,0,0,0,3.826-1.457,6.123,6.123,0,0,0,1.355-4.307v-13.76h5.285v13.555Q2740.805,5009.336,2738.008,5012.083Zm15.13,2.369v-24.02h11.152q4.152,0,6.279,2.129a5.541,5.541,0,0,1,1.647,4.082v.069a5.465,5.465,0,0,1-3.157,5.182,7.913,7.913,0,0,1,3.363,2.23,5.589,5.589,0,0,1,1.132,3.67v.068a5.613,5.613,0,0,1-2.4,4.908,11.327,11.327,0,0,1-6.587,1.681Zm13.829-16.849v-.066q0-2.474-3.466-2.473h-5.216v5.078h4.873Q2766.966,5000.141,2766.966,4997.6Zm1.338,9.608v-.068q0-2.609-3.913-2.608h-6.108v5.284h6.281Q2768.3,5009.819,2768.3,5007.211Z" transform="translate(0 -2248.468)" fill="#fff"/>
  </g>
</svg>
